<?xml version="1.0" encoding="UTF-8" standalone="no"?>
<!-- Generator: Adobe Illustrator 12.0.1, SVG Export Plug-In . SVG Version: 6.00 Build 51448)  -->

<svg
   xmlns:dc="http://purl.org/dc/elements/1.1/"
   xmlns:cc="http://creativecommons.org/ns#"
   xmlns:rdf="http://www.w3.org/1999/02/22-rdf-syntax-ns#"
   xmlns:svg="http://www.w3.org/2000/svg"
   xmlns="http://www.w3.org/2000/svg"
   xmlns:xlink="http://www.w3.org/1999/xlink"
   xmlns:sodipodi="http://sodipodi.sourceforge.net/DTD/sodipodi-0.dtd"
   xmlns:inkscape="http://www.inkscape.org/namespaces/inkscape"
   version="1.1"
   id="infot"
   width="430.28"
   height="257.60999"
   viewBox="0 0 430.27999 257.60999"
   overflow="visible"
   enable-background="new 0 0 212.279 243.607"
   xml:space="preserve"
   sodipodi:version="0.32"
   inkscape:version="0.47pre0"
   sodipodi:docname="Metal_type_kerning.svg"
   inkscape:output_extension="org.inkscape.output.svg.inkscape"
   style="display:inline;overflow:visible"><sodipodi:namedview
   inkscape:window-height="1033"
   inkscape:window-width="1920"
   inkscape:pageshadow="2"
   inkscape:pageopacity="0.0"
   borderopacity="1.0"
   bordercolor="#666666"
   pagecolor="#ffffff"
   id="base"
   inkscape:zoom="1.4142136"
   inkscape:cx="132.6006"
   inkscape:cy="168.30424"
   inkscape:window-x="-4"
   inkscape:window-y="-4"
   inkscape:current-layer="layer8"
   showgrid="false"
   showguides="true"
   inkscape:guide-bbox="true"
   inkscape:window-maximized="1" /><metadata
   id="metadata136"><rdf:RDF><cc:Work
       rdf:about=""><dc:format>image/svg+xml</dc:format><dc:type
         rdf:resource="http://purl.org/dc/dcmitype/StillImage" /><dc:title /></cc:Work></rdf:RDF></metadata><defs
   id="defs134"><inkscape:perspective
     id="perspective2947"
     inkscape:persp3d-origin="106.1395 : 81.202332 : 1"
     inkscape:vp_z="212.27901 : 121.8035 : 1"
     inkscape:vp_y="0 : 1000 : 0"
     inkscape:vp_x="0 : 121.8035 : 1"
     sodipodi:type="inkscape:persp3d" /><inkscape:perspective
     sodipodi:type="inkscape:persp3d"
     inkscape:vp_x="0 : 0.5 : 1"
     inkscape:vp_y="0 : 1000 : 0"
     inkscape:vp_z="1 : 0.5 : 1"
     inkscape:persp3d-origin="0.5 : 0.33333333 : 1"
     id="perspective2957" /><inkscape:perspective
     sodipodi:type="inkscape:persp3d"
     inkscape:vp_x="0 : 0.5 : 1"
     inkscape:vp_y="0 : 1000 : 0"
     inkscape:vp_z="1 : 0.5 : 1"
     inkscape:persp3d-origin="0.5 : 0.33333333 : 1"
     id="perspective4119" /><inkscape:perspective
     sodipodi:type="inkscape:persp3d"
     inkscape:vp_x="0 : 0.5 : 1"
     inkscape:vp_y="0 : 1000 : 0"
     inkscape:vp_z="1 : 0.5 : 1"
     inkscape:persp3d-origin="0.5 : 0.33333333 : 1"
     id="perspective4156" /><inkscape:perspective
     sodipodi:type="inkscape:persp3d"
     inkscape:vp_x="0 : 0.5 : 1"
     inkscape:vp_y="0 : 1000 : 0"
     inkscape:vp_z="1 : 0.5 : 1"
     inkscape:persp3d-origin="0.5 : 0.33333333 : 1"
     id="perspective5310" /><inkscape:perspective
     sodipodi:type="inkscape:persp3d"
     inkscape:vp_x="0 : 0.5 : 1"
     inkscape:vp_y="0 : 1000 : 0"
     inkscape:vp_z="1 : 0.5 : 1"
     inkscape:persp3d-origin="0.5 : 0.33333333 : 1"
     id="perspective5335" /><inkscape:perspective
     id="perspective6235"
     inkscape:persp3d-origin="0.5 : 0.33333333 : 1"
     inkscape:vp_z="1 : 0.5 : 1"
     inkscape:vp_y="0 : 1000 : 0"
     inkscape:vp_x="0 : 0.5 : 1"
     sodipodi:type="inkscape:persp3d" /></defs>

<g
   style="display:inline"
   inkscape:groupmode="layer"
   id="g3164"
   inkscape:label="Shank No Kerning"
   transform="translate(0,14.006296)"
   sodipodi:insensitive="true"><path
     style="fill:#e4edf1;stroke:#2e2113;stroke-width:0.5;stroke-linejoin:round"
     d="m 111.30877,4.820247 105.32201,60.808 L 123.92509,119.38198 18.603088,58.573979 111.30877,4.820247 z"
     id="polygon3168"
     sodipodi:nodetypes="ccccc" /><path
     sodipodi:nodetypes="ccccccccc"
     id="path3170"
     d="m 210.79278,145.19425 c 0,-3.317 0.839,-5.861 2.654,-7.517 0,-0.098 3.185,-1.769 3.185,-1.769 l 0,-70.280003 -92.77227,53.734663 0,111.97 92.77227,-53.73466 0,-23.118 c -3.28,-0.476 -5.839,-4.452 -5.839,-9.286 z"
     style="fill:#b6c4ca;stroke:#2e2113;stroke-width:0.5;stroke-linejoin:round" /><path
     sodipodi:nodetypes="cccsccccccccc"
     id="path3172"
     d="m 210.79278,145.19425 c 0,-3.086 1.046,-5.817 2.654,-7.517 l -89.54991,51.52197 c -3.279,0.476 -5.839,4.451 -5.839,9.285 0,4.834 2.56,8.81 5.839,9.285 l 0,0.048 92.73391,-53.29097 0,-0.048 c -3.279,-0.474 -5.838,-4.45 -5.838,-9.284 z m 5.705,-9.255 c 0.045,-0.009 0.088,-0.022 0.134,-0.029 l 0,-0.048 -0.134,0.077 z"
     style="fill:#a2aeb3;stroke:#2e2113;stroke-width:0.5;stroke-linejoin:round" /><path
     id="path3184"
     d="m 123.87452,189.21351 0,-69.852 -105.322002,-60.807011 0,111.970011 27.712,15.999 4.243,-3.256 25.212,14.555 4.243,8.157 43.912002,25.353 0,-23.548 c -3.279,-0.476 -5.839,-4.451 -5.839,-9.285 0,-4.834 2.56,-8.811 5.839,-9.286 z"
     style="fill:#d2dfe5;stroke:#2e2113;stroke-width:0.5;stroke-linejoin:round"
     sodipodi:nodetypes="ccccccccccsc" /></g><g
   inkscape:label="Shank Kerning"
   id="g6267"
   inkscape:groupmode="layer"
   style="display:inline"
   transform="translate(0,14.006296)"><path
     sodipodi:nodetypes="ccccc"
     id="path6269"
     d="m 311.54445,4.820247 105.32199,60.808 L 342.89976,108.39705 237.57777,47.589048 311.54445,4.820247 z"
     style="fill:#e4edf1;stroke:#2e2113;stroke-width:0.5;stroke-linejoin:round" /><path
     style="fill:#b6c4ca;stroke:#2e2113;stroke-width:0.5;stroke-linejoin:round"
     d="m 411.02844,145.19425 c 0,-3.317 0.839,-5.861 2.654,-7.517 0,-0.098 3.185,-1.769 3.185,-1.769 l 0,-70.280003 -74.03326,42.668963 0,111.97 74.03326,-42.66896 0,-23.118 c -3.28,-0.476 -5.839,-4.452 -5.839,-9.286 z"
     id="path6271"
     sodipodi:nodetypes="ccccccccc" /><path
     style="fill:#a2aeb3;stroke:#2e2113;stroke-width:0.5;stroke-linejoin:round"
     d="m 411.02844,145.19425 c 0,-3.086 1.046,-5.817 2.654,-7.517 l -70.8109,40.29472 c -3.279,0.476 -5.839,4.451 -5.839,9.285 0,4.834 2.56,8.81 5.839,9.285 l 0,0.048 73.9949,-42.06372 0,-0.048 c -3.279,-0.474 -5.838,-4.45 -5.838,-9.284 z m 5.705,-9.255 c 0.045,-0.009 0.088,-0.022 0.134,-0.029 l 0,-0.048 -0.134,0.077 z"
     id="path6273"
     sodipodi:nodetypes="cccsccccccccc" /><path
     sodipodi:nodetypes="ccccccccccsc"
     style="fill:#d2dfe5;stroke:#2e2113;stroke-width:0.5;stroke-linejoin:round"
     d="m 342.8492,178.02665 0,-69.852 -105.32199,-60.807011 0,111.970011 27.712,15.999 4.243,-3.256 25.212,14.555 4.243,8.157 43.91199,25.353 0,-23.548 c -3.279,-0.476 -5.839,-4.451 -5.839,-9.285 0,-4.834 2.56,-8.811 5.839,-9.286 z"
     id="path6275" /></g><g
   style="display:inline"
   inkscape:label="Glyph No Kerning"
   id="layer7"
   inkscape:groupmode="layer"
   transform="translate(0,14.006296)"
   sodipodi:insensitive="true"><g
     id="g6252"
     transform="matrix(-1,0,0,1,241.29881,-13.250474)"><path
       id="path5882"
       transform="translate(-5.819188e-6,0)"
       d="m 129.9375,16.6875 0,12 c 2.34661,0.297477 5.30432,1.295274 8.5625,2.65625 3.62781,1.591557 7.08088,3.522322 10.5625,5.40625 L 159.09375,42.59375 162.25,45 l 0,-12 c -0.12675,-1.145322 -1.9105,-1.680553 -3.15625,-2.40625 L 149.0625,24.75 c -3.50295,-1.921332 -6.92157,-4.31276 -10.5625,-5.40625 -2.76668,-1.397253 -5.64398,-2.170017 -8.5625,-2.65625 z"
       style="font-size:6.87503195px;fill:#b6c4ca;fill-opacity:1;stroke:#000000;stroke-width:0.5;stroke-linejoin:round;stroke-miterlimit:4;stroke-opacity:1;stroke-dasharray:none" /><path
       id="path5890"
       transform="translate(-5.819188e-6,0)"
       d="m 128.40625,16.59375 c -1.50395,-0.02083 -2.90435,0.187573 -4.25,0.5625 C 122.31966,17.671937 120.48524,18.187015 118.5,19 l 0,12 c 2.16541,-0.894022 3.94221,-1.401099 5.65625,-1.84375 2.42631,-0.652663 4.26738,-0.72852 5.78125,-0.46875 l 0,-12 c -0.52454,-0.06501 -1.02993,-0.0868 -1.53125,-0.09375 z"
       style="font-size:6.87503195px;fill:#d2dfe5;fill-opacity:1;stroke:#000000;stroke-width:0.5;stroke-linejoin:round;stroke-miterlimit:4;stroke-opacity:1;stroke-dasharray:none" /><path
       sodipodi:nodetypes="ccccccc"
       id="path5894"
       transform="translate(-5.819188e-6,0)"
       d="m 115.03125,16.75 0,12 c 0.004,0.770946 0.49728,0.892935 1.09375,1.40625 0.57846,0.419912 1.34052,0.727849 2.375,0.84375 l 0,-12 c -1.11926,-0.282599 -1.68241,-0.561151 -2.375,-0.84375 -0.57892,-0.367223 -0.80737,-0.892756 -1.09375,-1.40625 z"
       style="font-size:6.87503195px;fill:#b6c4ca;fill-opacity:1;stroke:#000000;stroke-width:0.5;stroke-linejoin:round;stroke-miterlimit:4;stroke-opacity:1;stroke-dasharray:none" /><path
       id="path5920"
       transform="translate(-5.819188e-6,0)"
       d="m 215.625,55.90625 c -2.15612,1.612637 -4.1426,3.401144 -5.65625,5.65625 -1.78865,1.945865 -3.64515,3.739854 -5.125,6.40625 l 0,12 c 1.62426,-2.195274 3.19314,-4.416041 5.125,-6.40625 1.84106,-1.88116 3.61279,-3.77509 5.65625,-5.65625 l 0,-12 z"
       style="font-size:6.87503195px;fill:#d2dfe5;fill-opacity:1;stroke:#000000;stroke-width:0.5;stroke-linejoin:round;stroke-miterlimit:4;stroke-opacity:1;stroke-dasharray:none" /><path
       sodipodi:nodetypes="ccccccccccc"
       id="path5932"
       transform="translate(-5.819188e-6,0)"
       d="m 174.875,40.3125 0,12 c 1.22858,0.0472 2.7643,1.177887 4.1875,1.90625 2.7717,1.570635 5.33193,3.068077 7.78125,4.53125 3.01404,1.693021 6.09813,3.755663 9.21875,5.875 4.0115,2.83414 5.68876,5.206196 6.72526,6.809304 l 0,-12 c -1.04066,-2.846615 -4.53109,-5.325925 -6.72526,-6.809304 -2.88591,-2.097878 -5.90299,-4.09951 -9.21875,-5.875 -2.5511,-1.655724 -4.87742,-3.325816 -7.78125,-4.53125 -1.39622,-0.716585 -2.79128,-2.146601 -4.1875,-1.90625 z"
       style="font-size:6.87503195px;fill:#b6c4ca;fill-opacity:1;stroke:#000000;stroke-width:0.5;stroke-linejoin:round;stroke-miterlimit:4;stroke-opacity:1;stroke-dasharray:none" /><path
       id="path5940"
       transform="translate(-5.819188e-6,0)"
       d="m 174.40625,40.25 c -0.63008,0.08555 -1.73785,0.657376 -3.0625,1.4375 L 122.875,68.46875 c -3.67675,1.992389 -9.44558,4.868854 -9.6875,7.5 l 0.21875,11.3125 9.46875,-6.8125 48.46875,-26.78125 c 1.24142,-0.647822 2.49898,-1.35465 3.53125,-1.375 l 0,-12 c -0.0933,-0.08826 -0.25872,-0.09102 -0.46875,-0.0625 z"
       style="font-size:6.87503195px;fill:#d2dfe5;fill-opacity:1;stroke:#000000;stroke-width:0.5;stroke-linejoin:round;stroke-miterlimit:4;stroke-opacity:1;stroke-dasharray:none" /><path
       id="path5950"
       transform="translate(-5.819188e-6,0)"
       d="m 122.875,84.25 c -0.10935,0.449763 -0.25895,0.875388 -0.6875,1.21875 -0.55785,0.20501 -1.15576,0.362626 -2.03125,0.25 l 0,12 c 0.67225,0.08296 1.359,0.09456 2.03125,-0.25 0.33664,-0.282627 0.85257,-0.33407 0.6875,-1.21875 l 0,-12 z"
       style="font-size:6.87503195px;fill:#d2dfe5;fill-opacity:1;stroke:#000000;stroke-width:0.5;stroke-linejoin:round;stroke-miterlimit:4;stroke-opacity:1;stroke-dasharray:none" /><path
       id="path5954"
       transform="translate(-5.819188e-6,0)"
       d="m 81.96875,63.46875 0,12 10.40625,5.78125 8.4375,4.84375 8.5,5.03125 10.84375,6.59375 0,-12 -10.84375,-6.59375 -8.5,-5.03125 L 92.375,69.25 81.96875,63.46875 z"
       style="font-size:6.87503195px;fill:#b6c4ca;fill-opacity:1;stroke:#000000;stroke-width:0.5;stroke-linejoin:round;stroke-miterlimit:4;stroke-opacity:1;stroke-dasharray:none" /><path
       id="path5924"
       transform="translate(-5.819188e-6,0)"
       d="m 200.40625,66.25 0,12 c 0.62066,0.539582 1.25434,0.9883 1.875,1.3125 0.85862,0.310863 1.70388,0.4183 2.5625,0.40625 l 0,-12 c -0.81777,0.02229 -1.63828,-0.0028 -2.5625,-0.40625 -0.55603,-0.304194 -1.21231,-0.794989 -1.875,-1.3125 z"
       style="font-size:6.87503195px;fill:#b6c4ca;fill-opacity:1;stroke:#000000;stroke-width:0.5;stroke-linejoin:round;stroke-miterlimit:4;stroke-opacity:1;stroke-dasharray:none" /><g
       transform="matrix(-1.0719645,-0.62456957,-0.82134059,0.45432069,-4.9971263e-7,3.7082879e-6)"
       style="font-size:6.87503195px;fill:#e4edf1;fill-opacity:1;stroke:#000000;stroke-width:0.5;stroke-miterlimit:4;stroke-opacity:1;display:inline;overflow:visible"
       id="text4107-1"><path
         d="m -101.24845,-62.080838 c -0.088,-2.092655 0.055,-3.385144 0.429,-3.877472 0.37395,-0.492162 1.506938,-0.695659 3.398973,-0.610492 l 9.371924,0 c 3.624404,-0.0027 6.704376,0.266833 9.239924,0.808495 2.535407,0.541826 4.559389,1.372318 6.071951,2.491478 0.978913,0.830573 1.726906,2.20556 2.243982,4.124967 0.516916,1.919558 0.868913,3.756541 1.055991,5.510955 0.398665,0.401566 0.987158,0.588564 1.765483,0.560993 0.77816,-0.02743 1.333656,-0.302428 1.666489,-0.824991 -0.181584,-2.230159 -0.08259,-5.39263 0.296996,-9.487424 0.379413,-4.094634 0.940409,-7.620101 1.682988,-10.576413 -0.173336,-0.263907 -0.519833,-0.428905 -1.039492,-0.494996 -0.51983,-0.06591 -0.965325,-0.03291 -1.336489,0.099 -0.849828,1.655576 -1.92232,2.700567 -3.217476,3.134974 -1.295318,0.434583 -3.654795,0.621581 -7.07844,0.560996 l -53.459564,0 c -3.07449,0.09359 -5.60447,-0.06041 -7.58994,-0.461999 -1.9855,-0.401409 -3.19548,-1.611398 -3.62997,-3.629968 -0.25301,-0.189658 -0.67101,-0.272157 -1.25399,-0.247499 -0.583,0.02484 -1.001,0.10734 -1.25399,0.247499 -0.48125,2.758318 -1.16875,5.95379 -2.06249,9.586425 -0.89374,3.632798 -1.87823,6.993266 -2.95347,10.081415 0.308,0.550068 0.81399,0.935065 1.51799,1.154992 0.70399,0.220069 1.34198,0.143069 1.91398,-0.231 0.68474,-1.641665 1.46024,-3.209151 2.32649,-4.702462 0.86623,-1.493162 2.07072,-2.961648 3.61347,-4.405464 1.76547,-1.465657 4.17445,-2.395149 7.22694,-2.788478 3.05245,-0.393164 6.05542,-0.563662 9.00892,-0.511495 l 7.25994,0 c 1.89745,-0.07966 3.05244,0.112833 3.46497,0.577495 0.41246,0.464826 0.57746,1.680316 0.495,3.646471 l 0,59.0035199 c 0.12921,6.7099572 -0.29428,11.109917 -1.27049,13.1998926 -0.97628,2.0899885 -3.28076,3.1899785 -6.91344,3.2999735 l -4.75196,0.395996 c -0.51152,0.401497 -0.74252,0.984491 -0.693,1.748984 0.0495,0.764496 0.28047,1.281492 0.693,1.55099 4.13048,-0.132002 7.58448,-0.231003 10.362,-0.297002 2.77745,-0.066 5.43944,-0.099 7.98597,-0.099 2.56019,0 5.16167,0.033 7.804455,0.099 2.642684,0.066 5.805163,0.165 9.487448,0.297002 0.406856,-0.277751 0.648805,-0.811248 0.725848,-1.600492 0.07692,-0.789242 -0.07709,-1.355737 -0.462016,-1.699486 l -4.223966,-0.395996 c -3.679523,-0.109995 -5.956503,-1.209985 -6.830949,-3.2999735 -0.87454,-2.0899756 -1.23753,-6.4899354 -1.08899,-13.1998926 z"
         style="font-size:132.00062561px;fill:#e4edf1;stroke:#000000;font-family:Adobe Garamond Pro;-inkscape-font-specification:Adobe Garamond Pro"
         id="path4440-7" /></g></g></g><g
   inkscape:groupmode="layer"
   id="layer8"
   inkscape:label="Glyph Kerning"><use
     style="display:inline;overflow:visible"
     x="0"
     y="0"
     xlink:href="#g6252"
     id="use6265"
     transform="translate(200.00722,14.006296)"
     width="212.27901"
     height="243.60699" /></g></svg>